<?xml version="1.0" encoding="utf-8"?>
<!-- Generator: Adobe Illustrator 28.0.0, SVG Export Plug-In . SVG Version: 6.00 Build 0)  -->
<svg version="1.1" id="Layer_1" xmlns="http://www.w3.org/2000/svg" xmlns:xlink="http://www.w3.org/1999/xlink" x="0px" y="0px"
	 viewBox="0 0 1080 1080" style="enable-background:new 0 0 1080 1080;" xml:space="preserve">
<path d="M582,301.7L354.7,815.1h-53.5L73.7,301.7h58.7l196.6,446l198-446H582z"/>
<path d="M930,558.4H982v195.8c-24,21-52.3,37.2-85.1,48.4c-32.8,11.2-67.2,16.9-103.4,16.9c-51.3,0-97.6-11.2-138.6-33.7
	c-41.1-22.5-73.3-53.5-96.8-93.2c-23.5-40.1-35.2-84.8-35.2-134.2c0-49.4,11.7-93.9,35.2-133.5c23.5-40.1,55.7-71.4,96.8-93.9
	c41.1-22.5,87.5-33.7,139.4-33.7c39.1,0,75.1,6.4,107.8,19.1c32.8,12.2,60.4,30.6,82.9,55l-33.7,34.5
	c-40.6-40.1-92.2-60.1-154.8-60.1c-41.6,0-79.2,9.3-113,27.9c-33.3,18.1-59.4,43.5-78.5,76.3c-19.1,32.3-28.6,68.5-28.6,108.6
	s9.5,76.3,28.6,108.6c19.1,32.3,45.2,57.7,78.5,76.3c33.3,18.6,70.7,27.9,112.2,27.9c52.8,0,97.6-13.2,134.2-39.6V558.4z"/>
</svg>
