<?xml version="1.0" encoding="utf-8"?>
<!-- Generator: Adobe Illustrator 28.0.0, SVG Export Plug-In . SVG Version: 6.00 Build 0)  -->
<svg version="1.1" id="Layer_1" xmlns="http://www.w3.org/2000/svg" xmlns:xlink="http://www.w3.org/1999/xlink" x="0px" y="0px"
	 viewBox="0 0 1080 1080" style="enable-background:new 0 0 1080 1080;" xml:space="preserve">
<path d="M634.4,281.3L399.7,811.3h-55.3L109.7,281.3h60.6l202.9,460.3l204.4-460.3H634.4z"/>
<path d="M913.5,538.2h53.8v202.1c-24.7,21.7-54,38.4-87.8,50c-33.8,11.6-69.4,17.4-106.7,17.4c-53,0-100.7-11.6-143.1-34.8
	c-42.4-23.2-75.7-55.3-99.9-96.1c-24.2-41.4-36.3-87.6-36.3-138.5c0-51,12.1-96.9,36.3-137.8c24.2-41.4,57.5-73.7,99.9-96.9
	s90.3-34.8,143.8-34.8c40.4,0,77.5,6.6,111.3,19.7c33.8,12.6,62.3,31.5,85.5,56.8l-34.8,35.6c-41.9-41.4-95.1-62.1-159.7-62.1
	c-42.9,0-81.8,9.6-116.6,28.8c-34.3,18.7-61.3,44.9-81,78.7c-19.7,33.3-29.5,70.7-29.5,112c0,41.4,9.8,78.7,29.5,112
	c19.7,33.3,46.7,59.6,81,78.7c34.3,19.2,72.9,28.8,115.8,28.8c54.5,0,100.7-13.6,138.5-40.9V538.2z"/>
</svg>
