<?xml version="1.0" encoding="utf-8"?>
<!-- Generator: Adobe Illustrator 28.0.0, SVG Export Plug-In . SVG Version: 6.00 Build 0)  -->
<svg version="1.1" id="Layer_1" xmlns="http://www.w3.org/2000/svg" xmlns:xlink="http://www.w3.org/1999/xlink" x="0px" y="0px"
	 viewBox="0 0 1080 1080" style="enable-background:new 0 0 1080 1080;" xml:space="preserve">
<style type="text/css">
	.st0{fill:#000005;fill-opacity:0.65;}
	.st1{fill:#FFFFFF;}
</style>
<rect x="773" y="482" class="st0" width="50" height="50"/>
<rect x="773" y="282" class="st0" width="50" height="50"/>
<rect x="773" y="182" class="st0" width="50" height="50"/>
<rect x="773" y="382" class="st0" width="50" height="50"/>
<rect x="773" y="332" class="st0" width="50" height="50"/>
<rect x="773" y="232" class="st0" width="50" height="50"/>
<rect x="773" y="432" class="st0" width="50" height="50"/>
<rect x="673" y="482" class="st0" width="50" height="50"/>
<rect x="673" y="282" class="st0" width="50" height="50"/>
<rect x="673" y="182" class="st0" width="50" height="50"/>
<rect x="673" y="382" class="st0" width="50" height="50"/>
<rect x="673" y="132" class="st0" width="50" height="50"/>
<rect x="673" y="532" class="st0" width="50" height="50"/>
<rect x="673" y="332" class="st0" width="50" height="50"/>
<rect x="673" y="232" class="st0" width="50" height="50"/>
<rect x="673" y="432" class="st0" width="50" height="50"/>
<rect x="873" y="282" class="st0" width="50" height="50"/>
<rect x="873" y="382" class="st0" width="50" height="50"/>
<rect x="873" y="332" class="st0" width="50" height="50"/>
<rect x="873" y="232" class="st0" width="50" height="50"/>
<rect x="623" y="482" class="st0" width="50" height="50"/>
<rect x="623" y="282" class="st0" width="50" height="50"/>
<rect x="623" y="182" class="st0" width="50" height="50"/>
<rect x="623" y="332" class="st0" width="50" height="50"/>
<rect x="623" y="232" class="st0" width="50" height="50"/>
<rect x="623" y="432" class="st0" width="50" height="50"/>
<rect x="823" y="482" class="st0" width="50" height="50"/>
<rect x="823" y="282" class="st0" width="50" height="50"/>
<rect x="823" y="182" class="st0" width="50" height="50"/>
<rect x="823" y="382" class="st0" width="50" height="50"/>
<rect x="823" y="332" class="st0" width="50" height="50"/>
<rect x="823" y="232" class="st0" width="50" height="50"/>
<rect x="823" y="432" class="st0" width="50" height="50"/>
<rect x="723" y="482" class="st0" width="50" height="50"/>
<rect x="723" y="282" class="st0" width="50" height="50"/>
<rect x="723" y="182" class="st0" width="50" height="50"/>
<rect x="723" y="382" class="st0" width="50" height="50"/>
<rect x="723" y="132" class="st0" width="50" height="50"/>
<rect x="723" y="532" class="st0" width="50" height="50"/>
<rect x="723" y="332" class="st0" width="50" height="50"/>
<rect x="723" y="232" class="st0" width="50" height="50"/>
<rect x="723" y="432" class="st0" width="50" height="50"/>
<rect x="123" y="644" class="st0" width="50" height="50"/>
<rect x="123" y="594" class="st0" width="50" height="50"/>
<rect x="323" y="444" class="st0" width="50" height="50"/>
<rect x="323" y="844" class="st0" width="50" height="50"/>
<rect x="323" y="644" class="st0" width="50" height="50"/>
<rect x="323" y="544" class="st0" width="50" height="50"/>
<rect x="323" y="744" class="st0" width="50" height="50"/>
<rect x="323" y="494" class="st0" width="50" height="50"/>
<rect x="323" y="894" class="st0" width="50" height="50"/>
<rect x="323" y="694" class="st0" width="50" height="50"/>
<rect x="323" y="594" class="st0" width="50" height="50"/>
<rect x="323" y="794" class="st0" width="50" height="50"/>
<rect x="223" y="844" class="st0" width="50" height="50"/>
<rect x="223" y="644" class="st0" width="50" height="50"/>
<rect x="223" y="544" class="st0" width="50" height="50"/>
<rect x="223" y="744" class="st0" width="50" height="50"/>
<rect x="223" y="494" class="st0" width="50" height="50"/>
<rect x="223" y="894" class="st0" width="50" height="50"/>
<rect x="223" y="694" class="st0" width="50" height="50"/>
<rect x="223" y="594" class="st0" width="50" height="50"/>
<rect x="223" y="794" class="st0" width="50" height="50"/>
<rect x="423" y="444" class="st0" width="50" height="50"/>
<rect x="423" y="844" class="st0" width="50" height="50"/>
<rect x="423" y="644" class="st0" width="50" height="50"/>
<rect x="423" y="544" class="st0" width="50" height="50"/>
<rect x="423" y="744" class="st0" width="50" height="50"/>
<rect x="423" y="494" class="st0" width="50" height="50"/>
<rect x="423" y="694" class="st0" width="50" height="50"/>
<rect x="423" y="594" class="st0" width="50" height="50"/>
<rect x="423" y="794" class="st0" width="50" height="50"/>
<rect x="523" y="644" class="st0" width="50" height="50"/>
<rect x="523" y="594" class="st0" width="50" height="50"/>
<rect x="523" y="744" class="st0" width="50" height="50"/>
<rect x="523" y="694" class="st0" width="50" height="50"/>
<rect x="523" y="794" class="st0" width="50" height="50"/>
<rect x="173" y="844" class="st0" width="50" height="50"/>
<rect x="173" y="644" class="st0" width="50" height="50"/>
<rect x="173" y="544" class="st0" width="50" height="50"/>
<rect x="173" y="744" class="st0" width="50" height="50"/>
<rect x="173" y="694" class="st0" width="50" height="50"/>
<rect x="173" y="594" class="st0" width="50" height="50"/>
<rect x="173" y="794" class="st0" width="50" height="50"/>
<rect x="373" y="444" class="st0" width="50" height="50"/>
<rect x="373" y="844" class="st0" width="50" height="50"/>
<rect x="373" y="644" class="st0" width="50" height="50"/>
<rect x="373" y="544" class="st0" width="50" height="50"/>
<rect x="373" y="744" class="st0" width="50" height="50"/>
<rect x="373" y="494" class="st0" width="50" height="50"/>
<rect x="373" y="894" class="st0" width="50" height="50"/>
<rect x="373" y="694" class="st0" width="50" height="50"/>
<rect x="373" y="594" class="st0" width="50" height="50"/>
<rect x="373" y="794" class="st0" width="50" height="50"/>
<rect x="473" y="444" class="st0" width="50" height="50"/>
<rect x="273" y="844" class="st0" width="50" height="50"/>
<rect x="273" y="644" class="st0" width="50" height="50"/>
<rect x="273" y="544" class="st0" width="50" height="50"/>
<rect x="273" y="744" class="st0" width="50" height="50"/>
<rect x="273" y="494" class="st0" width="50" height="50"/>
<rect x="273" y="894" class="st0" width="50" height="50"/>
<rect x="273" y="694" class="st0" width="50" height="50"/>
<rect x="273" y="594" class="st0" width="50" height="50"/>
<rect x="273" y="794" class="st0" width="50" height="50"/>
<rect x="473" y="844" class="st0" width="50" height="50"/>
<rect x="473" y="644" class="st0" width="50" height="50"/>
<rect x="473" y="544" class="st0" width="50" height="50"/>
<rect x="473" y="744" class="st0" width="50" height="50"/>
<rect x="473" y="494" class="st0" width="50" height="50"/>
<rect x="473" y="694" class="st0" width="50" height="50"/>
<rect x="473" y="594" class="st0" width="50" height="50"/>
<rect x="473" y="794" class="st0" width="50" height="50"/>
<rect x="573" y="744" class="st0" width="50" height="50"/>
<rect x="573" y="694" class="st0" width="50" height="50"/>
<path class="st1" d="M373,794h-33.3v-33.3H373V794z M339.7,760.7h-33.3v-33.3h33.3V760.7z M406.3,760.7H373v-33.3h33.3V760.7z
	 M306.3,727.3H273v-100h33.3V727.3z M439.7,727.3h-33.3v-100h33.3V727.3z"/>
<path class="st1" d="M733.8,422.2H706V283.3h27.8V422.2z M817.1,366.7h-55.6v-27.8h83.3v83.3h-27.8V366.7z M817.1,283.3h-83.3v-27.8
	h83.3V283.3z M817.1,450h-83.3v-27.8h83.3V450z"/>
</svg>
