<svg id="Layer_2" data-name="Layer 2" xmlns="http://www.w3.org/2000/svg" viewBox="0 0 841.89 595.28"><defs><style>.cls-1,.cls-2,.cls-3,.cls-4{fill:none;}.cls-1,.cls-3,.cls-4{stroke:#231f20;}.cls-1,.cls-2,.cls-3,.cls-4,.cls-6{stroke-miterlimit:10;}.cls-1{stroke-width:0.25px;}.cls-2,.cls-6{stroke:#ed1c24;}.cls-2{stroke-width:0.5px;}.cls-4{stroke-width:0.75px;}.cls-5,.cls-6{fill:#ed1c24;}</style></defs><polyline class="cls-1" points="309.28 429.62 310.82 427.5 313.37 425.51 313.37 422.81 316.11 418.2 322.93 414.6 329.81 409.67 335.12 406.07 341.62 405.19 348.06 401.46 353.31 399.76 359.05 395.02 363.79 391.55"/><polyline class="cls-1" points="283.64 413.53 286.8 409.45 286.8 405.66 290.31 401.5 291.35 397.61 289.81 393.77"/><polyline class="cls-2" points="390.26 379.21 389.45 382.31 387.27 385.72 386.8 390.5 387.13 392.4 386.46 393.54 383.9 393.92 382.3 392.52 381.02 389.32 378.55 388.28 377.89 389.65 375.85 391.55 370.17 393.3 367.61 394.82 362.83 394.82 357.76 392.73 355.53 393.44 352.93 396.81 347.81 399.93 340.52 401.4 333.6 403.65 329.75 406.64 324.57 406.64 321.54 404.18 316.86 404.24 312.81 405.76 307.55 406.64 304.7 409.22 298.36 409.69 294.81 407.61 289.74 406.42 284.9 403.06 277.89 400.74 271.64 396.15 266.97 393.44"/><polyline class="cls-1" points="407.59 354.22 405.98 356.43 405.16 358.77 403 362.24 399.28 363.63 396.38 365.78 393.6 368.87 392.14 371.84 390.69 373.18 387.35 377.46 384.38 378.85 378.63 382.2 376.94 385.39 374.15 387.05 371.64 390.03 369.36 391.93 367.97 392.11"/><path class="cls-3" d="M213.28,424.71l4.65,1.13,10.8-3.12,2.18-2.37,4.64,2.74,17,.67,4.16-2.65,7.58,6.15,12.51-3,2.93-3.88,3.13-6.82h2v6.86l5,5.45,12.22,6.73,6-3.6,2.18,1.14-4.83,6.25,28.23,24,19.26,1.2,29.81,14.14,23.25,1.27,17.43-5.31-2.41-9.85L417.28,454h3.18l5.67,8.08,2,7.08,11.37-6.57,10.61-21,25.51-9.35,11.12-11.11,8.59,6.56,11.37-2L533,397.11l19.7-12.64,6.57-9.85h3.29l4.54,6.32L578,382.2l9.35-20.72h10.35l2.78-10.35-6.82-4.8,1.26-4.05h5.56l1.27-4.8,5.55-4.54,11.62-8.85-2.77-4,9.34-1.26-3-3,6.32-2v-5.06l-8.34-2.52v-3h7.33l-8.34-7.08h-9.1l-2.77-2.52,6.56-4,10.61,2.28,6.07,6.27,6.06-.39,1.52-8.16,3.28-7.32L639,275.84l-7.58,9.48-2.4-4.55,2.53-12,3.28-6.32-4.67-2.9-11.25,7.7-9.09,3.41-3.28-2.27L615,266l6.57-7.33,6.94-3.28,2.78-13.9-5.3-5.87-5.31,5.87-.19-7-4-4.16L610.61,233l-8-2.65-6.63.94-5.68,7.39-1.52-1.7,5.5-9.86,3-2.08-2.84-3.79,1.89-7.39-12.69,4.93-9.1,4.36-1-4.55,2.66-7.77,6.82-8.91-.57-10.8-6.63-5.68-2.47,3.22-3.6.76-8.14-1.52-1.14-4.54h-2.84l-.19-4.93,11.56-5.12-1.61-6.53-2.28-3.13,5.69-2.75,9.37-6.63-6.63-.66-3.5-3.41L564,155.75l-1.71,5.59-4.54,3.5-8.06,1.8.86,6.73-2.66,3.69-5.11-5.21-7.49-2.18-1.51-4.45-2.18-1.51,4.07-5.31-2-6.82-10.13-2.65-.95-8.81-13-1.33.66,4.26s-3.88.19-4.16.1a44.46,44.46,0,0,1-2.66-4.36l-8.71,2.84L493.14,145s6.53,13.55,6.53,13.93,2.56,9,2.56,9L498.82,176s-10.8,4.17-11.18,4.55-7.2,1.23-7.2,1.23l-1.51-5.59.28-7.86-6,2.08-7,6.63-6.82,13.27-.38,7.58s-5.68,1.13-6.44,1.13-5.5-5.68-5.5-5.68-4-7.2-4.35-7.77-8-6.44-8-6.44l-8.34-3s-4.36,1.89-4.36,2.46-1.14,7.77-1.14,7.77,4.55,14.21,4.93,14.78,7.58,11.74,7.58,11.74l1.71,10s-1.33,8.71-1.71,9.85-3.79,1.7-3.79,1.7l-2.21-7.76s-.31-9.1,0-9.86-3.85-11.93-3.85-11.93L417,200.18l-5.5-.57-.94-4.74,2.08-6.63-3.6-4-1.89-5.11-7-5.5-6.07.57-7.58,8,.38,4.55s-14.78,3.22-15,3.79-1.7,14.21-1.7,14.21,4.42,9,4.42,9.72-2.78,9.6-2.78,9.6l-9.6-1.26-2-13.14-5.05-3-11.12-22-8.84-2.78-7.83,4.8,2.52,16.93s4.55,11.62,4.3,13.39-1,11.62-1,11.62l-2.53,7.58L322,237.44l-2.27-7.83-5.31-1.52-12.88,12.38,2.27,18.45-.5,8.33-4.55,7.08-1.26,8.33-5.06-10.61-1.26-14.65L290,249.06l-5.56,2-3-3.53,7.07-3.79-.76-7.83-6.56,3.28-3.29-1.77,6.82-5.3-10.86-1.77-3.54-8.59,1.27-6.06,3.28,4.54,2.27,6.07,6.57-.51,4.8-6.57,2.78-16.17-9.6-4-5.05-3,3.54-1.26L289,194l-1.77-5.56L281.37,190l-1.52-7.33L271,170.75,265,170l-1.52-6.82-10.1-1-.76-9.6-7.08-10.87-4.8,1.77-4-2.52-6.31,1.26L218,138.79l-3.29,3.92,2.59,8.77-5.49,2.28,2.08,7.2,7,.19,9.67-4.36,4.16-4.55s4.17,2.84,4.17,3.41,3.22,5.5,3.22,5.5-2.65,4.17-3.22,4.36-7.58-.95-7.58-.95l-6.25-.38-4.92,2.46s4,5.5,4.16,6.07,9.86,7.2,9.86,7.2l6.06,4s2.27,5.69,2.27,6.26,1.9,9.47,1.9,9.47l-1,8.34-4.55,4.36-2.46-1.71,2.08-4.36,1.33-7.39-2.08-4s-2.66,2.85-2.66,3.41-.94,6.26-1.13,7.39-2.66,4.74-2.66,4.74l-2.84-6.63,1.52-8,2.46-4.36L230.53,186l-4.17,3.6-3,8.9-2.85-2.65.19-5.68-3.6-11.37-5.3-3.41-1.9-7.2-11-1.71-6.44,5.31v8l5.5,5.3-1.71,1.52-6.44-4.36-6.63,1.33-.95,5.87,9.66,8.71,8,4.17-.38,2.66L193,200.75l-5.3-.19-3.79-4.17-5.12,2.84,1.89,7.39,4.74,5.5,11,1.13,8.53,1.52-.76,2.84-12.32-.19.95,3.41,11,1.52-2.27,2.27s-6.07.19-6.63.76-5.5,4.17-5.5,4.17l-.95-8.53-21.22-14.59L165.73,214l4.54,7,7.39,4.17-2.08,1.33L169,223.67l-1.9,2.66,5.31,6.06-2.84,1.33-4.74-4.93-7.2-6.44-4.93,4.36v4.54l-6.06,3.6V240l8.9,1.51,6.26-2.46,9.66,8.53,1.52,3.41,8.52-.57,4.93-7.2,14.4,1.33,7.2-2.66-.19-4.92,8.34.19,7.39-5.5-4.93,8.53,7.2,4.92-.76-7.57,1.33-3.6,1.7,7.2,2.47,4.35,1.32-8.9,2.66-3,2.27,4,.38,7.76,7.2,6.82,6.06.38,4-6.44,5.49,3.22,9.1,1.33-1.33,4.55-10.61,1.51-9.66,9.29L236,270.85l-3.41,10.42,6.25.76,14.21,6.63,8.53-5.49s2.65-6.44,2.84-5.88,5.69,2.47,5.69,2.47l-6.07,16.67-20.46-.38-4.55-3.41-9.09.19-2.47,5.2s-4.73-7.85-5.49-7.85-8.15,4.17-8.15,4.17l1.14,3.29-7.77.39-2.65,7.12-2.65-3,2.08-6.45-5.31-.19-1.13,7.58-5.12-3.6-7.39.57-4.92,4.55L169,300l-8.91,5.5,6.63,16.29,10.8.38,4.74-5.68,7.58-.38,2.08-2.28L205.33,318l10.8-.57,13.45,4.36,6.06,10.42-1.39,8.53,7.2,8.34-1.77,3.78,2.66,4.3,4.42-1.14,5.05-6.44,7.58-3.54,5.05-6.06.63,1.64L263.56,347s-4.55,4.29-4.93,4.55-6.82,3.53-6.82,3.53l-2.4,9.85-2.4,7.2,2.78,2.4,6.69-1,4.93-5.55,4.93-6.07h3.28l.89,2.4-2.28,3.67-4.8,3.66-5.05,3.92-2.27,3.91,3.41,7.83-.26,4.42L250.67,395,247,401.27l-8.08,2.91-13.52,2.53L218,400.14,215.43,395l-3.16,1.51-.5,8.34,2,7.83Z"/><polygon class="cls-4" points="388.99 390.22 389.37 385.04 393.1 382.14 393.79 376.96 399.35 372.41 403.14 371.84 403.14 373.42 399.92 376.26 395.56 384.28 397.33 385.48 404.15 380.62 404.97 383.02 399.1 388.64 392.72 391.17 388.99 390.22"/><polygon class="cls-4" points="406.17 395.38 409.34 391.69 407.75 389.65 404.61 390.74 403 393.73 406.17 395.38"/><polygon class="cls-4" points="414.69 397.7 426.39 385.72 430.04 385.96 429.81 389.65 423.41 393.25 419.24 399.08 414.69 397.7"/><polygon class="cls-4" points="339.54 453.95 343.83 448.33 345.28 445.3 348.69 445.3 354.63 444.35 353.68 442.01 350.84 440.37 345.85 442.01 342.57 444.1 337.45 451.3 339.54 453.95"/><path class="cls-4" d="M293.37,395.34a50.5,50.5,0,0,0-5.05-2.09c-.38.07-4.68,1-4.68,1l1.77-5.84,6.13-7.58,3.6,1.2-2,5.5.94,5.24Z"/><polygon class="cls-4" points="310.74 389.08 309.41 393.63 311.37 397.61 314.53 396.79 313.52 390.79 310.74 389.08"/><polygon class="cls-4" points="367.66 392.5 372.87 386.1 371.92 382.5 368.61 383.5 364.06 389.65 364.34 392.5 367.66 392.5"/><polygon class="cls-4" points="408.19 354.6 412.23 352.26 413.05 349.36 414.32 348.85 414.32 347.08 408.82 348.1 407.37 350.84 406.8 352.77 408.19 354.6"/><polygon class="cls-4" points="424.86 352.96 427.89 354.6 431.94 354.6 431.43 352.96 430.04 351.82 431.5 350.5 433.39 349.93 433.39 346.45 435.03 343.86 432.69 342.79 428.34 346.58 424.86 350.18 424.86 352.96"/><polygon class="cls-4" points="357.03 279.38 357.92 288.98 360.32 287.72 360.32 285.69 362.59 285.69 364.61 288.98 367.14 287.97 366.25 282.92 361.33 279.38 357.03 279.38"/><polygon class="cls-4" points="352.36 351.28 352.36 344.56 353.87 340.3 351.6 338.87 348.47 341.62 347.72 347.08 349.99 349.48 350.8 352.04 352.36 351.28"/><polygon class="cls-4" points="296.9 361.67 292.86 360.28 293.43 356.31 295.7 357.5 295.58 358.99 296.9 361.67"/><polygon class="cls-4" points="334.74 379.48 338.15 377.97 340.36 374.68 340.86 372.22 337.8 372.92 336.88 375.85 334.74 377.53 334.74 379.48"/><path class="cls-4" d="M322,240.92l-2.75,3.31,1.38,3.89a22.19,22.19,0,0,0,3.84,1.42c.47-.1,3.31-1.33,3.31-1.33l-.95-3,1.42-2.51-1.42-1.8-3.08.75Z"/><path class="cls-4" d="M577.17,293.78l6.72-4,3.42-6.06,5.4-4.83,1.42-6.45s-5.4,4-5.59,4.27-2.09,4.73-2.09,4.73l-3.79,4.46L578.78,289Z"/><polygon class="cls-4" points="491.72 302.4 494.46 301.74 494.94 299.65 492.19 298.52 490.01 300.46 491.72 302.4"/><polygon class="cls-4" points="433.45 318.13 436.48 317.27 436.48 314.72 431.46 316.42 429.38 320.12 430.8 320.68 433.45 318.13"/><polygon class="cls-4" points="479.81 241.86 483.6 237.95 478.3 235.29 477.03 238.58 477.03 241.86 479.81 241.86"/><circle class="cls-5" cx="388.99" cy="376.33" r="3.15"/><polygon class="cls-6" points="265 388.65 266.21 391.12 268.94 391.51 266.97 393.44 267.43 396.15 265 394.87 262.56 396.15 263.02 393.44 261.05 391.51 263.78 391.12 265 388.65"/><polyline class="cls-1" points="405.49 336.88 406.8 338.5 406.8 341.74 404.95 344.12 404.06 347.14 401.85 350.4 397.83 353.93 396.21 357.64 394.67 361.36 390.56 365.83 387.3 369.16 384.53 374.02 380.7 377.35 375.62 380.78 372.51 383.73"/><polyline class="cls-1" points="407.59 335.27 407.59 336.5 407.43 338.62 406.8 339.47"/><polyline class="cls-1" points="404.34 338.68 405.1 340.26 405.98 341.62 405.71 343.12"/><polyline class="cls-1" points="409.65 353.76 407.59 356.31 405.7 357.22"/><polyline class="cls-1" points="311.37 397.61 310.64 399.13 308.27 400.36 306.44 403.52 303.25 404.68 299.53 404.02 295.42 401.56 290.31 401.5"/><polyline class="cls-1" points="594.13 272.46 596.15 268.14 596.15 262.45 594.13 256.14 594.13 250.58 593.24 245.78 588.82 241.23 589.71 237.93"/><polyline class="cls-1" points="527.94 320.68 535.77 314.72 537.79 304.89 543.1 293.78 543.1 287.21 548.65 277.86 558.5 270.03 565.07 267 573.16 264.73 580.99 260.94 585.65 255.2 586.8 247.29 588.82 241.23"/><polyline class="cls-1" points="532.67 326.37 533.75 322.7 533.75 318.47 535.77 314.72"/><polyline class="cls-1" points="540.57 334.64 538.61 327.63 540.19 318.47 536.84 309.52"/><polyline class="cls-1" points="556.42 334.64 563.43 326.37 565.89 317.7 565.14 309.52 570.82 298.04 577.17 293.78"/><path class="cls-1" d="M550.17,336.22l4.17-8.53s6.25-7.76,6.82-8.52,4-9.65,4-9.65"/><polyline class="cls-1" points="424.93 257.59 429 250.77 430.33 241.23 431.9 233.88"/><polyline class="cls-1" points="434.4 258.25 432.41 251.72 432.41 244.42 430.33 241.23"/><polyline class="cls-1" points="399.54 271.99 391.96 271.99 385.33 264.79 378.5 258.25 374.15 249.74 370.17 236.56 364.86 227.27 365.84 223.27"/><polyline class="cls-1" points="399.54 265.55 391.01 265.55 383.1 262.66"/><polyline class="cls-1" points="389.66 277.3 387.6 271.99 387.6 267.26"/><polyline class="cls-1" points="368.07 232.88 369.6 228.6 369.6 223.76"/><polyline class="cls-1" points="359.75 279.38 357.03 274.26 347.72 267.26 343.07 260.81 335.68 258.25 330 253.04 326.06 248.96"/><polyline class="cls-1" points="322.18 248.96 322.48 253.1 327.35 253.6 335.68 258.25"/><polyline class="cls-1" points="357.03 281.08 353.02 276.54 351.32 271.42 345.73 267.92 345.44 264.1"/><polyline class="cls-1" points="359.75 314.24 358.67 307.86 361.07 299.46 360.44 291.5 362.59 285.69"/><polyline class="cls-1" points="353.62 310.96 356.15 305.4 360.63 301.01"/><polyline class="cls-1" points="385.45 304.26 378 296.31 372.51 294.16 366.2 288.34"/><polyline class="cls-1" points="381.41 309.69 378.76 305.98 377.87 299.34 378 296.31"/><polyline class="cls-1" points="265.07 341.65 268.94 335.27 276.38 328.07 279.41 322.2 287.5 317.7 296.9 316.7 300.84 311.59"/><polyline class="cls-1" points="296.9 309.69 296.9 313.3 294.88 316.92"/><polyline class="cls-1" points="309.28 345.46 295.89 347.08 290.31 342.79 280.11 339.47 272.53 338.87 266.39 339.47"/><line class="cls-1" x1="308.59" y1="342.28" x2="303.27" y2="346.19"/><polyline class="cls-1" points="483.28 396.66 480.25 401.78 481.77 408.79 481.77 419.59 483.28 424.58"/><polyline class="cls-1" points="476.65 395.38 476.65 403.11 481.19 406.14"/><polygon class="cls-4" points="384.38 395.97 382.99 394.45 379.77 394.45 380.46 395.97 383.05 396.66 384.38 395.97"/><polygon class="cls-4" points="390.26 397.86 392.14 396.66 389.66 394.45 386.08 396.66 386.65 397.86 390.26 397.86"/></svg>